# File created by Blade
# Date/Time:  Tue Apr 07 21:25:57 2015
# Frame Rate: 120.000 fps
#------------------------------------------------------
:FULLY-SPECIFIED
:DEGREES
486
root 24.282315 31.282176 5.463832 0.724467 -87.123121 64.507248
Spine 4.363243 -5.122536 -2.273675
Head -51.666138 1.680862 6.759017
LeftShoulder -20.090255 56.947582 6.644257
LeftArm 31.948109 18.787143 -71.638487
LeftForeArm 20.743782 -0.000000 -6.289856
LeftHand 1.615672 -0.000000 -23.105457
LeftHandThumb1 -26.253704 0.000000 33.147579
RightShoulder -4.297827 -25.101231 -21.271061
RightArm -11.863282 -17.844237 88.707717
RightForeArm -14.438671 -0.000000 -6.017990
RightHand 3.326685 -0.000000 23.789770
RightHandThumb1 -24.326973 -0.000000 -32.862282
LeftUpLeg -87.399967 -5.193782 3.215021
LeftLeg 27.822793 -0.000000 -0.000000
LeftFoot -13.038011 5.526051 -19.950110
LeftToeBase -1.772140 -0.000000 0.000000
RightUpLeg -89.822998 2.614351 -6.993163
RightLeg 29.161539 -0.000000 -0.000000
RightFoot -9.808925 -14.228938 5.118331
RightToeBase -4.771511 -0.000000 0.000000
487
root 24.199892 31.347046 5.464482 2.173899 -87.049795 63.156823
Spine 4.297744 -5.156044 -2.240227
Head -51.943801 1.649388 6.859128
LeftShoulder -18.854376 55.965302 7.395307
LeftArm 33.304643 20.073804 -70.995973
LeftForeArm 19.986202 -0.000000 -6.141678
LeftHand 2.153271 -0.000000 -22.322670
LeftHandThumb1 -26.253704 0.000000 33.147579
RightShoulder -3.779502 -24.205342 -21.116177
RightArm -11.007868 -17.961612 89.087220
RightForeArm -13.955954 -0.000000 -5.586943
RightHand 4.058364 -0.000000 22.548369
RightHandThumb1 -24.326973 -0.000000 -32.862282
LeftUpLeg -86.985686 -5.076336 2.881913
LeftLeg 27.189181 -0.000000 -0.000000
LeftFoot -12.726670 4.926539 -20.652127
LeftToeBase -1.809022 -0.000000 0.000000
RightUpLeg -89.416937 2.620359 -7.119814
RightLeg 28.462519 -0.000000 -0.000000
RightFoot -9.573145 -14.579453 5.063086
RightToeBase -4.751110 -0.000000 0.000000
488
root 24.118320 31.423226 5.457804 4.524840 -87.085273 60.885545
Spine 4.219138 -5.044410 -2.178466
Head -52.197193 1.593742 6.956881
LeftShoulder -17.423885 54.708219 8.337462
LeftArm 34.444528 21.077717 -70.524557
LeftForeArm 19.368361 -0.000000 -5.777327
LeftHand 2.685437 -0.000000 -21.298995
LeftHandThumb1 -26.253704 0.000000 33.147579
RightShoulder -3.265200 -23.141558 -20.972629
RightArm -10.224679 -18.611144 89.592973
RightForeArm -12.683806 -0.000000 -5.014161
RightHand 4.856843 -0.000000 21.374098
RightHandThumb1 -24.326973 -0.000000 -32.862282
LeftUpLeg -86.555352 -4.820304 2.551142
LeftLeg 26.549242 -0.000000 -0.000000
LeftFoot -12.399438 4.265653 -21.512659
LeftToeBase -1.316142 -0.000000 0.000000
RightUpLeg -88.938276 2.759265 -7.285049
RightLeg 27.599123 -0.000000 -0.000000
RightFoot -9.271176 -14.902731 5.246290
RightToeBase -4.697836 -0.000000 0.000000
489
root 24.024808 31.495362 5.450348 7.340752 -87.057193 58.113618
Spine 4.085303 -4.983739 -2.084483
Head -52.419534 1.523489 7.031227
LeftShoulder -16.171695 53.491571 9.047025
LeftArm 35.979942 22.069800 -69.712890
LeftForeArm 18.802281 -0.000000 -5.607198
LeftHand 3.503618 -0.000000 -20.224728
LeftHandThumb1 -26.253704 0.000000 33.147579
RightShoulder -2.769269 -22.094023 -20.779370
RightArm -9.231250 -19.025707 89.904948
RightForeArm -11.315376 -0.000000 -4.435164
RightHand 5.650908 -0.000000 20.183169
RightHandThumb1 -24.326973 -0.000000 -32.862282
LeftUpLeg -86.091975 -4.615948 2.254185
LeftLeg 25.951691 -0.000000 -0.000000
LeftFoot -12.116183 3.534769 -22.384533
LeftToeBase -0.924789 -0.000000 0.000000
RightUpLeg -88.471620 2.847542 -7.375844
RightLeg 26.913851 -0.000000 -0.000000
RightFoot -9.066076 -15.227663 5.485234
RightToeBase -4.613223 -0.000000 0.000000
490
root 23.928177 31.569937 5.450585 9.207252 -87.042276 56.259336
Spine 3.904262 -4.899941 -2.023415
Head -52.575400 1.420983 7.093596
LeftShoulder -14.991662 52.425212 9.675458
LeftArm 37.989124 23.058096 -68.655192
LeftForeArm 17.933421 -0.000000 -5.571209
LeftHand 3.875224 0.000000 -19.171545
LeftHandThumb1 -26.253704 0.000000 33.147579
RightShoulder -2.227724 -20.914129 -20.585909
RightArm -8.249965 -19.412713 90.176537
RightForeArm -9.490913 -0.000000 -3.741742
RightHand 6.086969 -0.000000 18.783514
RightHandThumb1 -24.326973 -0.000000 -32.862282
LeftUpLeg -85.542711 -4.445141 2.019232
LeftLeg 25.249539 -0.000000 -0.000000
LeftFoot -11.760316 2.981345 -23.106196
LeftToeBase -0.915401 -0.000000 0.000000
RightUpLeg -87.990394 2.919104 -7.468693
RightLeg 26.267164 -0.000000 -0.000000
RightFoot -8.956298 -15.544411 5.922333
RightToeBase -4.129306 -0.000000 0.000000
491
root 23.815752 31.617577 5.457647 8.491597 -86.824077 56.741926
Spine 3.878433 -5.029914 -2.097156
Head -52.669805 1.364220 7.190467
LeftShoulder -13.699431 51.058320 10.395901
LeftArm 39.726413 24.001692 -67.577839
LeftForeArm 17.267829 -0.000000 -5.334374
LeftHand 4.246766 -0.000000 -17.827736
LeftHandThumb1 -26.253704 0.000000 33.147579
RightShoulder -1.664663 -19.716767 -20.333320
RightArm -7.176773 -19.698790 90.277781
RightForeArm -7.731210 0.000000 -2.999070
RightHand 6.728854 0.000000 17.773476
RightHandThumb1 -24.326973 -0.000000 -32.862282
LeftUpLeg -84.795322 -4.507291 1.655285
LeftLeg 24.700966 -0.000000 -0.000000
LeftFoot -11.549541 2.406410 -23.801756
LeftToeBase -0.939939 -0.000000 0.000000
RightUpLeg -87.009780 3.015063 -8.453962
RightLeg 25.214379 -0.000000 -0.000000
RightFoot -9.202405 -16.504976 6.262010
RightToeBase -3.859044 -0.000000 0.000000
492
root 23.707302 31.677187 5.454553 10.173354 -86.769304 54.901031
Spine 3.706044 -4.965533 -2.053409
Head -52.740763 1.282049 7.258374
LeftShoulder -12.354830 49.662062 11.057520
LeftArm 41.514534 24.662395 -66.419099
LeftForeArm 16.421770 -0.000000 -5.060643
LeftHand 4.856660 -0.000000 -16.891382
LeftHandThumb1 -26.253704 0.000000 33.147579
RightShoulder -1.090940 -18.469631 -20.084337
RightArm -5.988964 -19.916980 90.319234
RightForeArm -5.536843 -0.000000 -2.189037
RightHand 7.521714 0.000000 16.270786
RightHandThumb1 -24.326973 -0.000000 -32.862282
LeftUpLeg -84.149030 -4.364271 1.398887
LeftLeg 24.172853 -0.000000 -0.000000
LeftFoot -11.251843 1.866786 -24.458090
LeftToeBase -0.841629 -0.000000 0.000000
RightUpLeg -86.448700 3.100806 -8.499634
RightLeg 24.810136 -0.000000 -0.000000
RightFoot -9.154886 -16.747500 6.596356
RightToeBase -3.688161 -0.000000 0.000000
493
root 23.595486 31.733870 5.455629 11.582040 -86.733194 53.208315
Spine 3.604814 -4.865692 -2.026297
Head -52.794859 1.196623 7.332811
LeftShoulder -11.089664 48.167085 11.564018
LeftArm 43.377762 25.084054 -65.205886
LeftForeArm 15.661994 0.000000 -4.794117
LeftHand 5.682579 -0.000000 -15.696060
LeftHandThumb1 -26.253704 0.000000 33.147579
RightShoulder -0.466247 -17.058117 -19.815039
RightArm -4.865682 -19.751917 90.255239
RightForeArm -3.370936 -0.000000 -1.309761
RightHand 8.192417 -0.000000 14.552837
RightHandThumb1 -24.326973 -0.000000 -32.862282
LeftUpLeg -83.403292 -4.265905 1.277198
LeftLeg 23.693751 -0.000000 -0.000000
LeftFoot -11.017924 1.468320 -25.006974
LeftToeBase -0.915256 -0.000000 0.000000
RightUpLeg -85.787256 3.208511 -8.547458
RightLeg 24.455917 -0.000000 -0.000000
RightFoot -9.111827 -16.947898 6.980745
RightToeBase -3.626955 -0.000000 0.000000
494
root 23.483419 31.780919 5.443628 14.073690 -86.645234 50.390563
Spine 3.452693 -4.795258 -1.944340
Head -52.773325 1.097718 7.430736
LeftShoulder -9.847113 46.611132 12.094338
LeftArm 45.516741 25.654110 -63.642055
LeftForeArm 14.230726 -0.000000 -4.601446
LeftHand 5.929020 0.000000 -13.834766
LeftHandThumb1 -26.253704 0.000000 33.147579
RightShoulder 0.146525 -15.661603 -19.519725
RightArm -3.614060 -19.584969 90.147580
RightForeArm -1.080682 -0.000000 -0.251940
RightHand 9.036936 0.000000 12.986948
RightHandThumb1 -24.326973 -0.000000 -32.862282
LeftUpLeg -82.691503 -4.158885 1.165678
LeftLeg 23.353923 -0.000000 -0.000000
LeftFoot -10.747624 1.042761 -25.380232
LeftToeBase -1.229252 -0.000000 0.000000
RightUpLeg -85.165448 3.330956 -8.594309
RightLeg 24.275626 -0.000000 -0.000000
RightFoot -9.186796 -17.162109 7.436127
RightToeBase -3.430829 -0.000000 0.000000
495
root 23.367217 31.820786 5.430729 17.433293 -86.540789 46.602410
Spine 3.302843 -4.735340 -1.801651
Head -52.651873 1.033902 7.540262
LeftShoulder -8.774517 45.457599 12.711424
LeftArm 48.224308 25.806512 -62.153153
LeftForeArm 13.006538 0.000000 -4.356796
LeftHand 6.173214 -0.000000 -13.292783
LeftHandThumb1 -26.253704 0.000000 33.147579
RightShoulder 0.813798 -14.302033 -19.226803
RightArm -2.086875 -19.414689 89.966132
RightForeArm 1.590331 -0.000000 0.579065
RightHand 9.703181 0.000000 11.074792
RightHandThumb1 -24.326973 -0.000000 -32.862282
LeftUpLeg -81.947956 -4.052696 1.126897
LeftLeg 23.149314 -0.000000 -0.000000
LeftFoot -10.584215 0.637296 -25.715972
LeftToeBase -1.451471 -0.000000 0.000000
RightUpLeg -84.499960 3.484623 -8.573019
RightLeg 24.223113 -0.000000 -0.000000
RightFoot -9.402140 -17.351112 8.082667
RightToeBase -3.184081 -0.000000 0.000000
496
root 23.249499 31.847317 5.408794 21.370276 -86.384962 42.147706
Spine 3.155475 -4.681609 -1.619306
Head -52.452076 0.972726 7.649374
LeftShoulder -7.712970 44.096783 13.190615
LeftArm 50.813843 25.827053 -60.435726
LeftForeArm 11.085937 -0.000000 -4.052363
LeftHand 6.756333 0.000000 -11.836819
LeftHandThumb1 -26.253704 0.000000 33.147579
RightShoulder 1.435678 -12.906924 -18.904865
RightArm -0.414752 -19.299883 89.736820
RightForeArm 4.405102 -0.000000 1.405540
RightHand 10.320397 0.000000 8.344694
RightHandThumb1 -24.326973 -0.000000 -32.862282
LeftUpLeg -81.208056 -3.975883 1.227980
LeftLeg 23.111333 -0.000000 -0.000000
LeftFoot -10.571625 0.257147 -26.108879
LeftToeBase -1.775378 -0.000000 0.000000
RightUpLeg -83.862797 3.655908 -8.491205
RightLeg 24.439118 -0.000000 -0.000000
RightFoot -9.795142 -17.509121 8.838097
RightToeBase -2.892987 -0.000000 0.000000
